name GIL04_xslow1.mot
datacolumns 153
datarows 4
range 1.15833330 1.18333340
endheader

                time	           pelvis_tx	           pelvis_ty	           pelvis_tz	         pelvis_tilt	         pelvis_list	     pelvis_rotation	       hip_flexion_r	     hip_adduction_r	      hip_rotation_r	        knee_angle_r	       ankle_angle_r	    subtalar_angle_r	         mtp_angle_r	       hip_flexion_l	     hip_adduction_l	      hip_rotation_l	        knee_angle_l	       ankle_angle_l	    subtalar_angle_l	         mtp_angle_l	    lumbar_extension	      lumbar_bending	     lumbar_rotation	     ground_force_vx	     ground_force_vy	     ground_force_vz	     ground_force_px	     ground_force_py	     ground_force_pz	     ground_force_vx	     ground_force_vy	     ground_force_vz	     ground_force_px	     ground_force_py	     ground_force_pz	     ground_torque_x	     ground_torque_y	     ground_torque_z	     ground_torque_x	     ground_torque_y	     ground_torque_z	    ground_marker_px	    ground_marker_py	    ground_marker_pz	    ground_marker_px	    ground_marker_py	    ground_marker_pz	    ground_marker_px	    ground_marker_py	    ground_marker_pz	    ground_marker_px	    ground_marker_py	    ground_marker_pz	    ground_marker_px	    ground_marker_py	    ground_marker_pz	    ground_marker_px	    ground_marker_py	    ground_marker_pz	    ground_marker_px	    ground_marker_py	    ground_marker_pz	    ground_marker_px	    ground_marker_py	    ground_marker_pz	    ground_marker_px	    ground_marker_py	    ground_marker_pz	    ground_marker_px	    ground_marker_py	    ground_marker_pz	    ground_marker_px	    ground_marker_py	    ground_marker_pz	    ground_marker_px	    ground_marker_py	    ground_marker_pz	    ground_marker_px	    ground_marker_py	    ground_marker_pz	    ground_marker_px	    ground_marker_py	    ground_marker_pz	    ground_marker_px	    ground_marker_py	    ground_marker_pz	    ground_marker_px	    ground_marker_py	    ground_marker_pz	    ground_marker_px	    ground_marker_py	    ground_marker_pz	    ground_marker_px	    ground_marker_py	    ground_marker_pz	    ground_marker_px	    ground_marker_py	    ground_marker_pz	    ground_marker_px	    ground_marker_py	    ground_marker_pz	    ground_marker_px	    ground_marker_py	    ground_marker_pz	    ground_marker_px	    ground_marker_py	    ground_marker_pz	    ground_marker_px	    ground_marker_py	    ground_marker_pz	    ground_marker_px	    ground_marker_py	    ground_marker_pz	    ground_marker_px	    ground_marker_py	    ground_marker_pz	    ground_marker_px	    ground_marker_py	    ground_marker_pz	    ground_marker_px	    ground_marker_py	    ground_marker_pz	    ground_marker_px	    ground_marker_py	    ground_marker_pz	    ground_marker_px	    ground_marker_py	    ground_marker_pz	    ground_marker_px	    ground_marker_py	    ground_marker_pz	    ground_marker_px	    ground_marker_py	    ground_marker_pz	    ground_marker_px	    ground_marker_py	    ground_marker_pz	    ground_marker_px	    ground_marker_py	    ground_marker_pz	    ground_marker_px	    ground_marker_py	    ground_marker_pz	    ground_marker_px	    ground_marker_py	    ground_marker_pz	    ground_marker_px	    ground_marker_py	    ground_marker_pz	    ground_marker_px	    ground_marker_py	    ground_marker_pz	
          1.15833330	          1.22077286	          0.75479448	         -0.21674001	         -0.35476780	          0.79936612	         -3.82232356	        -13.04731655	          0.93288541	          0.16150455	        -23.29131889	        -10.06905174	          0.00000000	          0.00000000	         11.84564209	          3.81817174	         -5.15085316	          2.80325890	         -7.40177202	          0.00000000	          0.00000000	        -19.19419098	         -3.72093344	          6.33809900	         13.93673523	         81.35494296	          3.10739723	          0.94395953	          0.00000000	         -0.20135004	        -19.82985780	        225.94419534	          1.43917030	          1.27714966	          0.00000000	         -0.25827774	          0.00000000	         -0.15098376	          0.00000000	          0.00000000	          0.29323471	          0.00000000	          1.16265059	          0.68349504	         -0.22404377	          1.15271163	          0.68954170	         -0.15828119	          1.16128027	          0.68945789	         -0.28381798	          1.08004987	          0.38306695	         -0.16817883	          1.22238815	          0.38033348	         -0.25834021	          0.88072383	          0.11629608	         -0.16709603	          1.30042756	          0.06438325	         -0.25762340	          1.22077286	          0.75479448	         -0.21674001	          1.21420014	          0.75485873	         -0.12044520	          1.22734559	          0.75473022	         -0.31303483	          1.07156193	          0.79036766	         -0.20734900	          1.07418239	          0.78452998	         -0.26235107	          1.07655907	          0.38226780	         -0.11780598	          1.22204018	          0.37615824	         -0.30816436	          1.08127952	          0.37640053	         -0.21641412	          1.22119701	          0.37972501	         -0.20218743	          0.87615359	          0.11984485	         -0.13409953	          1.29312074	          0.06250209	         -0.29128823	          0.88276362	          0.12992862	         -0.19352967	          1.29471970	          0.06880344	         -0.22895466	          1.10931492	          1.13926494	         -0.23294717	          1.18886197	          1.09066975	         -0.16961214	          1.18138754	          1.08738172	         -0.29906872	          1.17862725	          1.07788002	         -0.23620036	          1.18933177	          0.93434095	         -0.23248209	          1.09288955	          0.46868664	         -0.03832264	          1.33191001	          0.50017333	         -0.30122069	          1.14149106	          0.52165234	         -0.10206796	          1.25352120	          0.54921842	         -0.25138482	          1.13582242	          0.43867505	         -0.11727581	          1.25706935	          0.46254224	         -0.23602827	          0.92852014	          0.21271138	         -0.06031387	          1.35505795	          0.18223621	         -0.30125514	          0.96772242	          0.25128135	         -0.12079871	          1.28321862	          0.22197634	         -0.27806294	          0.93088067	          0.03928280	         -0.18635282	          1.39259231	          0.05522824	         -0.26708978	
          1.16666675	          1.22572780	          0.75504875	         -0.21751481	         -0.56324959	          0.82126099	         -3.74800158	        -12.64605045	          0.67248464	          0.01090542	        -23.86034775	        -11.81622791	          0.00000000	          0.00000000	         11.66758728	          3.94830227	         -4.97790766	          2.81231093	         -7.48802614	          0.00000000	          0.00000000	        -19.29055977	         -3.75817966	          6.35917187	         12.80446693	         75.81614138	          3.59575126	          0.94524121	          0.00000000	         -0.20192255	        -19.39944552	        232.97839503	          1.44095995	          1.27737952	          0.00000000	         -0.25832880	          0.00000000	         -0.14357004	          0.00000000	          0.00000000	          0.33224231	          0.00000000	          1.16746974	          0.68392754	         -0.22472143	          1.15749991	          0.69000453	         -0.15901785	          1.16591966	          0.68997198	         -0.28456473	          1.08571351	          0.38307735	         -0.16746181	          1.22489047	          0.38063136	         -0.25872427	          0.88482815	          0.11796778	         -0.16656719	          1.30088305	          0.06419037	         -0.25750694	          1.22572780	          0.75504875	         -0.21751481	          1.21926701	          0.75507379	         -0.12117695	          1.23218870	          0.75502378	         -0.31385267	          1.07674885	          0.79110706	         -0.20760974	          1.07909548	          0.78538626	         -0.26268193	          1.08220851	          0.38251126	         -0.11708678	          1.22462499	          0.37641895	         -0.30854580	          1.08628893	          0.37605235	         -0.21522415	          1.22343504	          0.38018644	         -0.20252113	          0.88007009	          0.12168437	         -0.13361573	          1.29373097	          0.06234318	         -0.29120687	          0.88708639	          0.13138968	         -0.19303139	          1.29504538	          0.06866942	         -0.22886363	          1.11497045	          1.13997602	         -0.23359758	          1.19455612	          1.09118509	         -0.17044534	          1.18683803	          1.08797324	         -0.29989839	          1.18384421	          1.07831347	         -0.23698922	          1.19460881	          0.93488562	         -0.23339486	          1.09824157	          0.46929920	         -0.03805140	          1.33518314	          0.49971730	         -0.30142772	          1.14707601	          0.52202457	         -0.10207084	          1.25710070	          0.54942894	         -0.25182644	          1.14106512	          0.43890032	         -0.11659770	          1.25998616	          0.46266520	         -0.23635879	          0.93262601	          0.21454638	         -0.05990878	          1.35646141	          0.18165912	         -0.30089459	          0.97260469	          0.25229588	         -0.12033534	          1.28481460	          0.22187199	         -0.27808794	          0.93219388	          0.03935177	         -0.18629543	          1.39303327	          0.05429750	         -0.26650274	
          1.17499995	          1.23061275	          0.75531185	         -0.21828428	         -0.74737644	          0.84519625	         -3.66995788	        -12.22185802	          0.40697569	         -0.11264393	        -24.49428177	        -13.58640480	          0.00000000	          0.00000000	         11.47739220	          4.07850552	         -4.78745127	          2.79948163	         -7.56397390	          0.00000000	          0.00000000	        -19.31755447	         -3.81196070	          6.39790154	         11.47938050	         70.22817181	          3.89894320	          0.94669324	          0.00000000	         -0.20243619	        -18.74146717	        239.32195465	          1.73519077	          1.27760559	          0.00000000	         -0.25841727	          0.00000000	         -0.13925238	          0.00000000	          0.00000000	          0.36189139	          0.00000000	          1.17228770	          0.68434095	         -0.22541609	          1.16224992	          0.69044435	         -0.15974869	          1.17051411	          0.69047379	         -0.28530589	          1.09159541	          0.38300598	         -0.16671745	          1.22742116	          0.38091931	         -0.25912136	          0.88911122	          0.11963885	         -0.16602264	          1.30131912	          0.06399414	         -0.25739923	          1.23061275	          0.75531185	         -0.21828428	          1.22426939	          0.75528920	         -0.12191177	          1.23695612	          0.75533444	         -0.31465679	          1.08192658	          0.79177892	         -0.20789470	          1.08393764	          0.78618324	         -0.26300782	          1.08810163	          0.38266701	         -0.11633959	          1.22725058	          0.37667385	         -0.30894053	          1.09609377	          0.37502083	         -0.21534483	          1.22552502	          0.38064525	         -0.20286229	          0.88417244	          0.12352274	         -0.13311712	          1.29432583	          0.06218020	         -0.29113427	          0.89152962	          0.13282654	         -0.19248284	          1.29538882	          0.06850454	         -0.22883171	          1.12058187	          1.14062047	         -0.23427734	          1.20024586	          1.09163547	         -0.17129540	          1.19223762	          1.08846605	         -0.30064869	          1.18916786	          1.07874894	         -0.23775877	          1.19984758	          0.93534935	         -0.23423280	          1.10380101	          0.46982044	         -0.03775895	          1.33847988	          0.49928924	         -0.30161497	          1.15277553	          0.52230024	         -0.10197569	          1.26076317	          0.54962379	         -0.25226811	          1.14846075	          0.43932697	         -0.11622554	          1.26287115	          0.46269131	         -0.23667258	          0.93695891	          0.21636702	         -0.05948017	          1.35786533	          0.18105629	         -0.30053470	          0.97772479	          0.25323334	         -0.11981172	          1.28639317	          0.22173700	         -0.27814522	          0.93360174	          0.03950335	         -0.18619040	          1.39344525	          0.05336655	         -0.26594853	
          1.18333340	          1.23541713	          0.75558412	         -0.21904270	         -0.90778255	          0.86649162	         -3.58607507	        -11.77244377	          0.14544757	         -0.21018581	        -25.19827271	        -15.35677433	          0.00000000	          0.00000000	         11.28013802	          4.20345831	         -4.58851862	          2.75878310	         -7.63191223	          0.00000000	          0.00000000	        -19.55818939	         -3.39519691	          5.86235189	         10.08836944	         64.67003196	          3.90495901	          0.94821313	          0.00000000	         -0.20281810	        -17.91972802	        244.93677920	          2.32355462	          1.27784326	          0.00000000	         -0.25852542	          0.00000000	         -0.14072595	          0.00000000	          0.00000000	          0.38226678	          0.00000000	          1.17709696	          0.68473351	         -0.22612065	          1.16695285	          0.69086641	         -0.16045962	          1.17504859	          0.69095945	         -0.28602776	          1.09770155	          0.38286039	         -0.16595586	          1.22999275	          0.38119638	         -0.25952563	          0.89356405	          0.12132863	         -0.16546892	          1.30173719	          0.06379608	         -0.25729635	          1.23541713	          0.75558412	         -0.21904270	          1.22920227	          0.75551265	         -0.12264726	          1.24163198	          0.75565553	         -0.31543815	          1.08709395	          0.79238081	         -0.20821711	          1.08870780	          0.78692037	         -0.26333824	          1.09424400	          0.38273874	         -0.11557450	          1.22991872	          0.37692112	         -0.30934247	          1.10127342	          0.37401405	         -0.21354099	          1.22766602	          0.38091847	         -0.20328052	          0.88845682	          0.12537616	         -0.13260886	          1.29490495	          0.06201455	         -0.29106614	          0.89609128	          0.13428479	         -0.19184043	          1.29549479	          0.06831101	         -0.22905257	          1.12610841	          1.14121401	         -0.23488735	          1.20435023	          1.09139192	         -0.17175949	          1.19759929	          1.08885849	         -0.30131948	          1.19416356	          1.07906842	         -0.23847605	          1.20309281	          0.93539035	         -0.23545095	          1.10956883	          0.47024864	         -0.03744712	          1.34179914	          0.49888214	         -0.30180261	          1.15850306	          0.52256286	         -0.10185515	          1.26435053	          0.54965150	         -0.25260451	          1.15389860	          0.43909886	         -0.11521729	          1.26574099	          0.46263257	         -0.23698683	          0.94152808	          0.21817358	         -0.05903107	          1.35926950	          0.18042327	         -0.30017304	          0.98311043	          0.25413501	         -0.11927552	          1.28793216	          0.22158588	         -0.27825925	          0.93512630	          0.03976244	         -0.18602800	          1.39383006	          0.05243045	         -0.26542190	
